# xmcd
#
# Track frame offsets: 
#        150
#        23243
#        42461
#        75373
#        98132
#        137582
#        158820
#        180511
#        200955
#        228047
#
# Disc length: 3335 seconds
#
# Revision: 1
# Processed by: cddbd v1.5.2PL0 Copyright (c) Steve Scherf et al.
# Submitted via: ExactAudioCopyFreeDBPlugin 1.0
#
DISCID=760d050a
DTITLE=Voxhall Blues - Nightshift At The Factory
DYEAR=2008
DGENRE=Blues
TTITLE0=Start It Up
TTITLE1=This Time No Lies
TTITLE2=Cry To Me
TTITLE3=Mean Little Mama
TTITLE4=Worried Life Blues
TTITLE5=Walking By Myself
TTITLE6=Sick And Tired
TTITLE7=What A Price
TTITLE8=I Can´t Forget
TTITLE9=T-Bone Shuffle
EXTD=
EXTT0=
EXTT1=
EXTT2=
EXTT3=
EXTT4=
EXTT5=
EXTT6=
EXTT7=
EXTT8=
EXTT9=
PLAYORDER=
